# xmcd
#
# Track frame offsets:
#	150
#	16696
#	34796
#	53912
#	71472
#	81831
#	99618
#	116893
#	133368
#	149210
#	161990
#	181533
#	196565
#	212773
#
# Disc length: 3082 seconds
#
# Revision: 0
# Processed by: cddbd v1.5.2PL0 Copyright (c) Steve Scherf et al.
# Submitted via: dBpowerAMP V4.0
#
DISCID=c90c080e
DTITLE=Justin Hines - Sides
DYEAR=2007
DGENRE=Pop-country
TTITLE0=Ther's always next time
TTITLE1=April on the ground
TTITLE2=Never After
TTITLE3=Shadow Girl
TTITLE4=Since When
TTITLE5=What we Had
TTITLE6=For it's you
TTITLE7=The only thing
TTITLE8=Sides
TTITLE9=Wish you well
TTITLE10=And it goes
TTITLE11=I've got a name
TTITLE12=Window View
TTITLE13=Another Way to Cry
EXTD=
EXTT0=
EXTT1=
EXTT2=
EXTT3=
EXTT4=
EXTT5=
EXTT6=
EXTT7=
EXTT8=
EXTT9=
EXTT10=
EXTT11=
EXTT12=
EXTT13=
PLAYORDER=
